<svg width="1200" height="630" xmlns="http://www.w3.org/2000/svg">
  <defs>
    <style>
      @import url('https://fonts.googleapis.com/css2?family=Inter:wght@400;500;600;700;800;900&amp;display=swap');
      text { font-family: 'Inter', system-ui, sans-serif; }
    </style>
  </defs>
  
  <!-- Background -->
  <rect width="1200" height="630" fill="#292524"/>
  
  <!-- Header -->
  <text x="60" y="95" fill="#fafaf9" font-size="42" font-weight="700">estimador.pt</text>
  <text x="60" y="125" fill="#a8a29e" font-size="20">Previsões Eleitorais Portuguesas</text>
  
  <!-- Election badge -->
  <rect x="880" y="60" width="260" height="50" rx="8" fill="#44403c"/>
  <text x="1010" y="93" fill="#fafaf9" font-size="18" font-weight="600" text-anchor="middle">Eleições Presidenciais 2026</text>
  
  <!-- Leading candidate color bar -->
  <rect x="60" y="200" width="8" height="100" rx="4" fill="#FF8C00"/>
  
  <!-- Leading candidate name -->
  <text x="88" y="250" fill="#fafaf9" font-size="52" font-weight="800">Marques Mendes</text>
  <text x="88" y="290" fill="#a8a29e" font-size="24">lidera com</text>
  
  <!-- Win probability -->
  <text x="88" y="420" fill="#FF8C00" font-size="120" font-weight="900">56%</text>
  <text x="330" y="380" fill="#78716c" font-size="28">prob. de ganhar a 1ª volta</text>
  
  <!-- Divider line -->
  <line x1="680" y1="180" x2="680" y2="550" stroke="#57534e" stroke-width="1"/>
  
  <!-- Second round box -->
  <rect x="720" y="200" width="280" height="100" rx="8" fill="#44403c"/>
  <text x="740" y="235" fill="#a8a29e" font-size="14" font-weight="600" letter-spacing="1">PROB. 2ª VOLTA</text>
  <text x="740" y="285" fill="#f59e0b" font-size="48" font-weight="800">>99%</text>
  
  <!-- Top 3 candidates -->
  
  <rect x="720" y="330" width="4" height="32" rx="2" fill="#FF8C00"/>
  <text x="740" y="355" fill="#e7e5e3" font-size="18" font-weight="500">Marques Mendes</text>
  <text x="1000" y="355" fill="#FF8C00" font-size="20" font-weight="700" text-anchor="end">56%</text>
  <line x1="720" y1="385" x2="1000" y2="385" stroke="#44403c" stroke-width="1"/>
  
  <rect x="720" y="400" width="4" height="32" rx="2" fill="#4A90D9"/>
  <text x="740" y="425" fill="#e7e5e3" font-size="18" font-weight="500">Gouveia e Melo</text>
  <text x="1000" y="425" fill="#4A90D9" font-size="20" font-weight="700" text-anchor="end">31%</text>
  <line x1="720" y1="455" x2="1000" y2="455" stroke="#44403c" stroke-width="1"/>
  
  <rect x="720" y="470" width="4" height="32" rx="2" fill="#8B0000"/>
  <text x="740" y="495" fill="#e7e5e3" font-size="18" font-weight="500">André Ventura</text>
  <text x="1000" y="495" fill="#8B0000" font-size="20" font-weight="700" text-anchor="end">12%</text>
  
  
</svg>